<svg width="86" height="86" viewBox="0 0 86 86" fill="none" xmlns="http://www.w3.org/2000/svg">
<rect y="1" width="85" height="85" rx="42.5" fill="white"/>
<path d="M42.9412 11.0703C25.4067 11.0703 11.1895 25.406 11.1895 42.9406C11.1895 60.4751 25.4067 74.8108 43.0597 74.8108C60.5942 74.8108 74.9299 60.4751 74.9299 42.9406C74.8115 25.406 60.5942 11.0703 42.9412 11.0703ZM42.9412 69.4793C28.3686 69.4793 16.5209 57.5132 16.5209 42.9406C16.5209 28.3679 28.3686 16.4018 42.9412 16.4018C57.5139 16.4018 69.3615 28.3679 69.3615 42.9406C69.48 57.6317 57.6323 69.4793 42.9412 69.4793Z" fill="#DF0000"/>
<path d="M53.4851 27.5393V33.7001C50.6417 29.7904 47.2058 28.8426 43.4146 28.0132L42.1113 27.7763V43.5337C42.1113 43.5337 50.2862 35.7142 51.471 34.6479C52.1819 35.5957 52.8927 36.662 53.4851 38.0837V48.7466C52.1819 46.7325 50.7601 45.4293 48.2721 45.0739C48.2721 45.0739 46.3765 44.8369 44.8363 45.7847C41.9929 47.4434 41.5189 51.4716 42.8222 54.0781C44.007 56.4476 46.8504 58.3433 51.234 56.5661L50.4047 54.552C47.6797 55.6183 45.6656 55.1444 44.7178 53.1303C43.77 51.1162 44.2439 48.5097 45.7841 47.6803C46.7319 47.088 47.9167 47.2064 47.9167 47.2064C50.6417 48.0358 51.8264 50.0499 53.3666 53.4857V58.6987H55.4992V27.5393H53.4851ZM44.2439 38.4392V30.5012C46.3765 30.9751 48.2721 31.686 49.9308 33.1077C49.1015 33.9371 46.258 36.662 44.2439 38.4392Z" fill="#DF0000"/>
<path d="M38.2026 36.7805C36.7809 35.1218 35.0037 35.0033 33.819 35.0033C33.4635 33.1077 32.3972 31.2121 30.7386 29.6719C30.7386 29.5534 30.857 29.5534 30.857 29.4349C31.2125 28.961 31.8049 28.1317 32.3972 27.5393H29.9092L29.3168 28.4871L28.1321 30.2643C30.7386 32.0414 32.0418 34.6479 31.6864 37.1359C31.4494 39.2685 29.7907 40.9272 27.3027 41.875L28.0136 43.8891C31.3309 42.7043 33.4635 40.3348 33.819 37.3729C33.819 37.2544 33.819 37.2544 33.819 37.1359C35.2407 37.1359 37.0178 37.4914 38.0841 41.5196V43.1782C37.3733 43.8891 27.8951 52.5379 27.8951 52.5379L39.7428 58.6987H40.2167V27.5393H37.9656C38.2026 28.4871 38.2026 32.2784 38.2026 36.7805ZM38.2026 55.3813C36.4254 54.4335 33.4635 52.8933 31.8049 52.064C33.2266 50.7607 36.07 48.0358 38.2026 46.1402V55.3813Z" fill="#DF0000"/>
<path d="M1 42.9408C1 19.8378 19.8378 1 42.9408 1C66.1622 1 85 19.8378 85 42.9408C85 66.1622 66.1622 85 42.9408 85C19.8378 85 1 66.1622 1 42.9408Z" stroke="#DF0000" stroke-miterlimit="10"/>
</svg>
